<mxfile host="app.diagrams.net" modified="2023-09-25T13:32:45.577Z" agent="Mozilla/5.0 (Windows NT 10.0; Win64; x64) AppleWebKit/537.36 (KHTML, like Gecko) Chrome/116.0.0.0 Safari/537.36" etag="ijd6IgUskma7q6l_U14y" version="21.8.2" type="github">
  <diagram name="Страница — 1" id="BGPAjNNVndj-kQ1KO1jv">
    <mxGraphModel dx="1938" dy="1055" grid="1" gridSize="10" guides="1" tooltips="1" connect="1" arrows="1" fold="1" page="1" pageScale="1" pageWidth="827" pageHeight="1169" math="0" shadow="0">
      <root>
        <mxCell id="0" />
        <mxCell id="1" parent="0" />
        <mxCell id="fG4ud8kzog3lmoYR1Ser-1" value="amqp-rpc" style="verticalAlign=bottom;endArrow=block;shadow=0;strokeWidth=1;fontSize=11;entryX=-0.033;entryY=0.001;entryDx=0;entryDy=0;entryPerimeter=0;fillColor=#f0a30a;strokeColor=#BD7000;" edge="1" parent="1">
          <mxGeometry relative="1" as="geometry">
            <mxPoint x="10" y="59" as="sourcePoint" />
            <mxPoint x="110.36999999999989" y="59" as="targetPoint" />
          </mxGeometry>
        </mxCell>
        <mxCell id="fG4ud8kzog3lmoYR1Ser-2" value="websocket" style="verticalAlign=bottom;endArrow=block;shadow=0;strokeWidth=1;fontSize=11;entryX=-0.033;entryY=0.001;entryDx=0;entryDy=0;entryPerimeter=0;fillColor=#dae8fc;strokeColor=#6c8ebf;" edge="1" parent="1">
          <mxGeometry relative="1" as="geometry">
            <mxPoint x="10" y="89" as="sourcePoint" />
            <mxPoint x="110.36999999999989" y="89" as="targetPoint" />
          </mxGeometry>
        </mxCell>
        <mxCell id="fG4ud8kzog3lmoYR1Ser-3" value="Транспорт" style="text;html=1;strokeColor=none;fillColor=none;align=center;verticalAlign=middle;whiteSpace=wrap;rounded=0;fontSize=13;" vertex="1" parent="1">
          <mxGeometry x="26" y="10" width="40" height="20" as="geometry" />
        </mxCell>
        <mxCell id="fG4ud8kzog3lmoYR1Ser-4" value="" style="endArrow=classic;html=1;rounded=0;" edge="1" parent="1">
          <mxGeometry width="50" height="50" relative="1" as="geometry">
            <mxPoint x="10" y="120" as="sourcePoint" />
            <mxPoint x="110" y="120" as="targetPoint" />
          </mxGeometry>
        </mxCell>
        <mxCell id="fG4ud8kzog3lmoYR1Ser-5" value="Прочее (напр., http)" style="edgeLabel;html=1;align=center;verticalAlign=middle;resizable=0;points=[];" vertex="1" connectable="0" parent="fG4ud8kzog3lmoYR1Ser-4">
          <mxGeometry x="-0.1551" y="2" relative="1" as="geometry">
            <mxPoint y="-8" as="offset" />
          </mxGeometry>
        </mxCell>
        <mxCell id="fG4ud8kzog3lmoYR1Ser-6" value="frontend" style="shape=umlLifeline;perimeter=lifelinePerimeter;container=1;collapsible=0;recursiveResize=0;rounded=0;shadow=0;strokeWidth=1;" vertex="1" parent="1">
          <mxGeometry x="130" y="20" width="100" height="550" as="geometry" />
        </mxCell>
        <mxCell id="fG4ud8kzog3lmoYR1Ser-7" value="" style="points=[];perimeter=orthogonalPerimeter;rounded=0;shadow=0;strokeWidth=1;" vertex="1" parent="fG4ud8kzog3lmoYR1Ser-6">
          <mxGeometry x="45" y="70" width="10" height="450" as="geometry" />
        </mxCell>
        <mxCell id="fG4ud8kzog3lmoYR1Ser-44" value="Подписка на&#xa; событие" style="verticalAlign=bottom;endArrow=block;shadow=0;strokeWidth=1;fontSize=11;entryX=-0.005;entryY=0.028;entryDx=0;entryDy=0;entryPerimeter=0;fillColor=#dae8fc;strokeColor=#6c8ebf;" edge="1" parent="fG4ud8kzog3lmoYR1Ser-6" target="fG4ud8kzog3lmoYR1Ser-13">
          <mxGeometry relative="1" as="geometry">
            <mxPoint x="55" y="80" as="sourcePoint" />
            <mxPoint x="155.3699999999999" y="80" as="targetPoint" />
          </mxGeometry>
        </mxCell>
        <mxCell id="fG4ud8kzog3lmoYR1Ser-12" value="api-proxy" style="shape=umlLifeline;perimeter=lifelinePerimeter;container=1;collapsible=0;recursiveResize=0;rounded=0;shadow=0;strokeWidth=1;" vertex="1" parent="1">
          <mxGeometry x="320" y="20" width="100" height="550" as="geometry" />
        </mxCell>
        <mxCell id="fG4ud8kzog3lmoYR1Ser-13" value="" style="points=[];perimeter=orthogonalPerimeter;rounded=0;shadow=0;strokeWidth=1;" vertex="1" parent="fG4ud8kzog3lmoYR1Ser-12">
          <mxGeometry x="45" y="70" width="10" height="350" as="geometry" />
        </mxCell>
        <mxCell id="fG4ud8kzog3lmoYR1Ser-14" value="" style="points=[];perimeter=orthogonalPerimeter;rounded=0;shadow=0;strokeWidth=1;" vertex="1" parent="fG4ud8kzog3lmoYR1Ser-12">
          <mxGeometry x="50" y="170" width="10" height="50" as="geometry" />
        </mxCell>
        <mxCell id="fG4ud8kzog3lmoYR1Ser-15" value="" style="points=[];perimeter=orthogonalPerimeter;rounded=0;shadow=0;strokeWidth=1;" vertex="1" parent="fG4ud8kzog3lmoYR1Ser-12">
          <mxGeometry x="45" y="460" width="10" height="40" as="geometry" />
        </mxCell>
        <mxCell id="fG4ud8kzog3lmoYR1Ser-20" value="document-service" style="shape=umlLifeline;perimeter=lifelinePerimeter;container=1;collapsible=0;recursiveResize=0;rounded=0;shadow=0;strokeWidth=1;" vertex="1" parent="1">
          <mxGeometry x="715.61" y="20" width="100" height="550" as="geometry" />
        </mxCell>
        <mxCell id="fG4ud8kzog3lmoYR1Ser-21" value="" style="points=[];perimeter=orthogonalPerimeter;rounded=0;shadow=0;strokeWidth=1;" vertex="1" parent="fG4ud8kzog3lmoYR1Ser-20">
          <mxGeometry x="45" y="190" width="10" height="160" as="geometry" />
        </mxCell>
        <mxCell id="fG4ud8kzog3lmoYR1Ser-22" value="workflow-api" style="shape=umlLifeline;perimeter=lifelinePerimeter;container=1;collapsible=0;recursiveResize=0;rounded=0;shadow=0;strokeWidth=1;" vertex="1" parent="fG4ud8kzog3lmoYR1Ser-20">
          <mxGeometry x="-160" width="100" height="550" as="geometry" />
        </mxCell>
        <mxCell id="fG4ud8kzog3lmoYR1Ser-23" value="" style="points=[];perimeter=orthogonalPerimeter;rounded=0;shadow=0;strokeWidth=1;" vertex="1" parent="fG4ud8kzog3lmoYR1Ser-22">
          <mxGeometry x="45" y="60" width="10" height="360" as="geometry" />
        </mxCell>
        <mxCell id="fG4ud8kzog3lmoYR1Ser-24" value="Запрос на генерацию&#xa; файла отчета" style="verticalAlign=bottom;endArrow=block;shadow=0;strokeWidth=1;exitX=1.041;exitY=0.264;exitDx=0;exitDy=0;exitPerimeter=0;entryX=-0.05;entryY=0.065;entryDx=0;entryDy=0;entryPerimeter=0;fillColor=#ffe6cc;strokeColor=#d79b00;" edge="1" parent="fG4ud8kzog3lmoYR1Ser-22" target="fG4ud8kzog3lmoYR1Ser-21">
          <mxGeometry relative="1" as="geometry">
            <mxPoint x="55" y="200" as="sourcePoint" />
            <mxPoint x="200" y="200" as="targetPoint" />
          </mxGeometry>
        </mxCell>
        <mxCell id="fG4ud8kzog3lmoYR1Ser-25" value="Возврат _id и  наименования файла" style="verticalAlign=bottom;endArrow=open;dashed=1;endSize=8;shadow=0;strokeWidth=1;exitX=-0.085;exitY=0.227;exitDx=0;exitDy=0;exitPerimeter=0;entryX=0.987;entryY=0.399;entryDx=0;entryDy=0;entryPerimeter=0;" edge="1" parent="fG4ud8kzog3lmoYR1Ser-22" target="fG4ud8kzog3lmoYR1Ser-7">
          <mxGeometry relative="1" as="geometry">
            <mxPoint x="-500" y="250" as="targetPoint" />
            <mxPoint x="44.999999999999886" y="250.3900000000001" as="sourcePoint" />
          </mxGeometry>
        </mxCell>
        <mxCell id="fG4ud8kzog3lmoYR1Ser-48" value="Публикация события о генерации отчета" style="verticalAlign=bottom;endArrow=block;shadow=0;strokeWidth=1;exitX=-0.001;exitY=0.936;exitDx=0;exitDy=0;exitPerimeter=0;entryX=0.993;entryY=0.83;entryDx=0;entryDy=0;entryPerimeter=0;fillColor=#ffe6cc;strokeColor=#d79b00;" edge="1" parent="fG4ud8kzog3lmoYR1Ser-22" target="fG4ud8kzog3lmoYR1Ser-13">
          <mxGeometry x="0.0027" relative="1" as="geometry">
            <mxPoint x="45" y="360" as="sourcePoint" />
            <mxPoint x="-165.61" y="360" as="targetPoint" />
            <mxPoint as="offset" />
          </mxGeometry>
        </mxCell>
        <mxCell id="fG4ud8kzog3lmoYR1Ser-26" value="" style="edgeStyle=elbowEdgeStyle;elbow=horizontal;endArrow=classic;html=1;exitX=1.039;exitY=0.003;exitDx=0;exitDy=0;exitPerimeter=0;" edge="1" parent="fG4ud8kzog3lmoYR1Ser-20">
          <mxGeometry width="50" height="50" relative="1" as="geometry">
            <mxPoint x="55.38999999999987" y="250" as="sourcePoint" />
            <mxPoint x="55" y="279.76" as="targetPoint" />
            <Array as="points">
              <mxPoint x="85" y="279.76" />
              <mxPoint x="85" y="248.76" />
            </Array>
          </mxGeometry>
        </mxCell>
        <mxCell id="fG4ud8kzog3lmoYR1Ser-27" value="Возврат _id и&#xa; наименования файла" style="verticalAlign=bottom;endArrow=open;dashed=1;endSize=8;shadow=0;strokeWidth=1;exitX=-0.085;exitY=0.227;exitDx=0;exitDy=0;exitPerimeter=0;entryX=0.935;entryY=0.503;entryDx=0;entryDy=0;entryPerimeter=0;fillColor=#ffe6cc;strokeColor=#d79b00;" edge="1" parent="fG4ud8kzog3lmoYR1Ser-20" target="fG4ud8kzog3lmoYR1Ser-23">
          <mxGeometry relative="1" as="geometry">
            <mxPoint x="-100" y="240" as="targetPoint" />
            <mxPoint x="44.999999999999886" y="240.81000000000006" as="sourcePoint" />
          </mxGeometry>
        </mxCell>
        <mxCell id="fG4ud8kzog3lmoYR1Ser-28" value="file" style="shape=umlLifeline;perimeter=lifelinePerimeter;container=1;collapsible=0;recursiveResize=0;rounded=0;shadow=0;strokeWidth=1;" vertex="1" parent="1">
          <mxGeometry x="865.61" y="20" width="100" height="550" as="geometry" />
        </mxCell>
        <mxCell id="fG4ud8kzog3lmoYR1Ser-29" value="" style="points=[];perimeter=orthogonalPerimeter;rounded=0;shadow=0;strokeWidth=1;" vertex="1" parent="fG4ud8kzog3lmoYR1Ser-28">
          <mxGeometry x="45" y="280" width="10" height="70" as="geometry" />
        </mxCell>
        <mxCell id="fG4ud8kzog3lmoYR1Ser-30" value="Файл сохранен" style="verticalAlign=bottom;endArrow=open;dashed=1;endSize=8;shadow=0;strokeWidth=1;exitX=-0.085;exitY=0.227;exitDx=0;exitDy=0;exitPerimeter=0;entryX=1.041;entryY=0.873;entryDx=0;entryDy=0;entryPerimeter=0;" edge="1" parent="fG4ud8kzog3lmoYR1Ser-28" target="fG4ud8kzog3lmoYR1Ser-21">
          <mxGeometry relative="1" as="geometry">
            <mxPoint x="-80" y="330" as="targetPoint" />
            <mxPoint x="45" y="330" as="sourcePoint" />
          </mxGeometry>
        </mxCell>
        <mxCell id="fG4ud8kzog3lmoYR1Ser-31" value="" style="points=[];perimeter=orthogonalPerimeter;rounded=0;shadow=0;strokeWidth=1;" vertex="1" parent="fG4ud8kzog3lmoYR1Ser-28">
          <mxGeometry x="45" y="470" width="10" height="50" as="geometry" />
        </mxCell>
        <mxCell id="fG4ud8kzog3lmoYR1Ser-33" value="Вызов действия workflow &#xa;для генерации отчета" style="verticalAlign=bottom;endArrow=block;shadow=0;strokeWidth=1;entryX=-0.007;entryY=0.2;entryDx=0;entryDy=0;entryPerimeter=0;exitX=1.053;exitY=0.244;exitDx=0;exitDy=0;exitPerimeter=0;" edge="1" parent="1" source="fG4ud8kzog3lmoYR1Ser-7" target="fG4ud8kzog3lmoYR1Ser-14">
          <mxGeometry x="0.0033" relative="1" as="geometry">
            <mxPoint x="190" y="200" as="sourcePoint" />
            <mxPoint x="440" y="200" as="targetPoint" />
            <mxPoint as="offset" />
          </mxGeometry>
        </mxCell>
        <mxCell id="fG4ud8kzog3lmoYR1Ser-34" value="&lt;font style=&quot;font-size: 11px;&quot;&gt;Генерация&lt;br&gt;&amp;nbsp;отчета&lt;/font&gt;" style="text;html=1;align=center;verticalAlign=middle;resizable=0;points=[];autosize=1;strokeColor=none;fillColor=none;" vertex="1" parent="1">
          <mxGeometry x="795.61" y="263" width="80" height="40" as="geometry" />
        </mxCell>
        <mxCell id="fG4ud8kzog3lmoYR1Ser-36" value="Проверка действия" style="verticalAlign=bottom;endArrow=block;shadow=0;strokeWidth=1;exitX=1.003;exitY=0.379;exitDx=0;exitDy=0;exitPerimeter=0;entryX=0.084;entryY=0.358;entryDx=0;entryDy=0;entryPerimeter=0;" edge="1" parent="1" source="fG4ud8kzog3lmoYR1Ser-14" target="fG4ud8kzog3lmoYR1Ser-23">
          <mxGeometry relative="1" as="geometry">
            <mxPoint x="376" y="210" as="sourcePoint" />
            <mxPoint x="590" y="210" as="targetPoint" />
          </mxGeometry>
        </mxCell>
        <mxCell id="fG4ud8kzog3lmoYR1Ser-37" value="&lt;span style=&quot;font-size: 10px;&quot;&gt;loop&lt;/span&gt;" style="shape=umlFrame;whiteSpace=wrap;html=1;pointerEvents=0;width=45;height=15;" vertex="1" parent="1">
          <mxGeometry x="320" y="70" width="340" height="100" as="geometry" />
        </mxCell>
        <mxCell id="fG4ud8kzog3lmoYR1Ser-39" value="Передача события" style="verticalAlign=bottom;endArrow=open;dashed=1;endSize=8;shadow=0;strokeWidth=1;entryX=0.937;entryY=0.734;entryDx=0;entryDy=0;entryPerimeter=0;exitX=-0.005;exitY=0.943;exitDx=0;exitDy=0;exitPerimeter=0;fillColor=#dae8fc;strokeColor=#6c8ebf;" edge="1" parent="1" source="fG4ud8kzog3lmoYR1Ser-13" target="fG4ud8kzog3lmoYR1Ser-7">
          <mxGeometry relative="1" as="geometry">
            <mxPoint x="190" y="420" as="targetPoint" />
            <mxPoint x="360" y="420" as="sourcePoint" />
          </mxGeometry>
        </mxCell>
        <mxCell id="fG4ud8kzog3lmoYR1Ser-40" value="Проверка действия и передача запроса в файловый сервис" style="verticalAlign=bottom;endArrow=block;shadow=0;strokeWidth=1;fontSize=11;entryX=-0.096;entryY=0.193;entryDx=0;entryDy=0;entryPerimeter=0;exitX=1.072;exitY=0.503;exitDx=0;exitDy=0;exitPerimeter=0;" edge="1" parent="1" source="fG4ud8kzog3lmoYR1Ser-15" target="fG4ud8kzog3lmoYR1Ser-31">
          <mxGeometry relative="1" as="geometry">
            <mxPoint x="380" y="500" as="sourcePoint" />
            <mxPoint x="849.69" y="500" as="targetPoint" />
          </mxGeometry>
        </mxCell>
        <mxCell id="fG4ud8kzog3lmoYR1Ser-41" value="Передача файла для скачивания" style="verticalAlign=bottom;endArrow=open;dashed=1;endSize=8;shadow=0;strokeWidth=1;fontSize=11;exitX=-0.177;exitY=0.788;exitDx=0;exitDy=0;exitPerimeter=0;entryX=1.007;entryY=0.977;entryDx=0;entryDy=0;entryPerimeter=0;" edge="1" parent="1" source="fG4ud8kzog3lmoYR1Ser-31" target="fG4ud8kzog3lmoYR1Ser-7">
          <mxGeometry relative="1" as="geometry">
            <mxPoint x="440" y="530" as="targetPoint" />
            <mxPoint x="1035" y="530" as="sourcePoint" />
          </mxGeometry>
        </mxCell>
        <mxCell id="fG4ud8kzog3lmoYR1Ser-42" value="Вызов действия workflow для&#xa; скачивания файла по id" style="verticalAlign=bottom;endArrow=block;shadow=0;strokeWidth=1;fontSize=11;exitX=1.042;exitY=0.888;exitDx=0;exitDy=0;exitPerimeter=0;entryX=-0.072;entryY=0.259;entryDx=0;entryDy=0;entryPerimeter=0;" edge="1" parent="1" source="fG4ud8kzog3lmoYR1Ser-7" target="fG4ud8kzog3lmoYR1Ser-15">
          <mxGeometry x="-0.0032" relative="1" as="geometry">
            <mxPoint x="190" y="490" as="sourcePoint" />
            <mxPoint x="450" y="490" as="targetPoint" />
            <mxPoint as="offset" />
          </mxGeometry>
        </mxCell>
        <mxCell id="fG4ud8kzog3lmoYR1Ser-43" value="Сохранение файла" style="verticalAlign=bottom;endArrow=block;shadow=0;strokeWidth=1;exitX=1.11;exitY=0.108;exitDx=0;exitDy=0;exitPerimeter=0;entryX=-0.09;entryY=0.295;entryDx=0;entryDy=0;entryPerimeter=0;" edge="1" parent="1" target="fG4ud8kzog3lmoYR1Ser-29">
          <mxGeometry x="-0.0055" relative="1" as="geometry">
            <mxPoint x="770.61" y="320" as="sourcePoint" />
            <mxPoint x="905.61" y="320" as="targetPoint" />
            <mxPoint as="offset" />
          </mxGeometry>
        </mxCell>
        <mxCell id="fG4ud8kzog3lmoYR1Ser-45" value="Ответ с информацией&#xa; по событию" style="verticalAlign=bottom;endArrow=open;dashed=1;endSize=8;shadow=0;strokeWidth=1;exitX=-0.028;exitY=0.197;exitDx=0;exitDy=0;exitPerimeter=0;entryX=1.226;entryY=0.172;entryDx=0;entryDy=0;entryPerimeter=0;fontSize=10;fillColor=#ffe6cc;strokeColor=#d79b00;" edge="1" parent="1" source="fG4ud8kzog3lmoYR1Ser-23" target="fG4ud8kzog3lmoYR1Ser-13">
          <mxGeometry relative="1" as="geometry">
            <mxPoint x="489.9999999999998" y="150" as="targetPoint" />
            <mxPoint x="640.3199999999999" y="150.14999999999998" as="sourcePoint" />
          </mxGeometry>
        </mxCell>
        <mxCell id="fG4ud8kzog3lmoYR1Ser-46" value="Анализ наличия события, на которое есть&#xa; подписка, в очереди сообщений" style="verticalAlign=bottom;endArrow=block;shadow=0;strokeWidth=1;fontSize=11;fillColor=#ffe6cc;strokeColor=#d79b00;" edge="1" parent="1">
          <mxGeometry relative="1" as="geometry">
            <mxPoint x="380" y="110" as="sourcePoint" />
            <mxPoint x="600" y="110" as="targetPoint" />
          </mxGeometry>
        </mxCell>
        <mxCell id="fG4ud8kzog3lmoYR1Ser-47" value="Возврат ответа о&#xa; сохранении файла" style="verticalAlign=bottom;endArrow=open;dashed=1;endSize=8;shadow=0;strokeWidth=1;exitX=-0.085;exitY=0.227;exitDx=0;exitDy=0;exitPerimeter=0;entryX=0.935;entryY=0.503;entryDx=0;entryDy=0;entryPerimeter=0;fillColor=#ffe6cc;strokeColor=#d79b00;" edge="1" parent="1">
          <mxGeometry relative="1" as="geometry">
            <mxPoint x="610" y="360.19000000000005" as="targetPoint" />
            <mxPoint x="760.9999999999999" y="360" as="sourcePoint" />
          </mxGeometry>
        </mxCell>
      </root>
    </mxGraphModel>
  </diagram>
</mxfile>
